# xmcd CD database file
#
# Track frame offsets:
#	150
#	16415
#	35627
#	49302
#	64655
#	84405
#	102340
#	120252
#	138100
#	154812
#
# Disc length: 2271 seconds
#
# Revision: 0
# Processed by: cddbd v1.5PL3 Copyright (c) Steve Scherf et al.
# Submitted via: CDex 1.51
#
DISCID=7a08dd0a
DTITLE=Dirt Band - An American Dream
DYEAR=1981
DGENRE=Country
TTITLE0=An American Dream
TTITLE1=In Her Eyes
TTITLE2=Take Me Back
TTITLE3=Jas'moon
TTITLE4=Dance The Night Away
TTITLE5=New Orleans
TTITLE6=Happy Feet
TTITLE7=Do You Feel The Way That I Do
TTITLE8=What's On Your Mind
TTITLE9=Wolverton Mountain
EXTD=YEAR: 1981
EXTT0=
EXTT1=
EXTT2=
EXTT3=
EXTT4=
EXTT5=
EXTT6=
EXTT7=
EXTT8=
EXTT9=
PLAYORDER=
